<?xml version="1.0" encoding="UTF-8" standalone="no"?>
<!-- Creator: CorelDRAW 2020 (64-Bit) -->

<svg
   xml:space="preserve"
   width="512"
   height="512"
   version="1.1"
   style="clip-rule:evenodd;fill-rule:evenodd;image-rendering:optimizeQuality;shape-rendering:geometricPrecision;text-rendering:geometricPrecision"
   viewBox="0 0 13546.667 13546.667"
   id="svg37"
   sodipodi:docname="Logo.svg"
   inkscape:export-filename="Icons/icon-512x512.png"
   inkscape:export-xdpi="96"
   inkscape:export-ydpi="96"
   inkscape:version="1.2 (dc2aedaf03, 2022-05-15)"
   xmlns:inkscape="http://www.inkscape.org/namespaces/inkscape"
   xmlns:sodipodi="http://sodipodi.sourceforge.net/DTD/sodipodi-0.dtd"
   xmlns:xlink="http://www.w3.org/1999/xlink"
   xmlns="http://www.w3.org/2000/svg"
   xmlns:svg="http://www.w3.org/2000/svg"><sodipodi:namedview
   id="namedview39"
   pagecolor="#ffffff"
   bordercolor="#000000"
   borderopacity="0.25"
   inkscape:showpageshadow="2"
   inkscape:pageopacity="0.0"
   inkscape:pagecheckerboard="0"
   inkscape:deskcolor="#d1d1d1"
   inkscape:document-units="mm"
   showgrid="false"
   inkscape:zoom="0.84531519"
   inkscape:cx="172.71664"
   inkscape:cy="279.7773"
   inkscape:window-width="1366"
   inkscape:window-height="705"
   inkscape:window-x="0"
   inkscape:window-y="0"
   inkscape:window-maximized="1"
   inkscape:current-layer="Capa_x0020_1" />
 <defs
   id="defs4"><color-profile
   name="OLVIA-BE"
   xlink:href="../.local/share/icc/edid-4b1bbf6e6e1b77f464328604319681e1.icc"
   id="color-profile1521" /><color-profile
   name="Apple-RGB"
   xlink:href="file:///usr/share/color/icc/colord/AppleRGB.icc"
   id="color-profile1523" />
  <style
   type="text/css"
   id="style2">
   <![CDATA[
    .fil0 {fill:#7FCC2B}
    .fil1 {fill:white}
   ]]>
  </style>
 
   
   
   
   
   
   
   
   
   
   
   
   
   
   
  </defs>
 <g
   id="Capa_x0020_1"
   inkscape:label="Capa 1"
   inkscape:groupmode="layer">
  <metadata
   id="CorelCorpID_0Corel-Layer" />
  <g
   id="g1100"
   style="fill:#ffffff;stroke:#ffffff;stroke-opacity:1"
   transform="matrix(2.8392667,0,0,3.2946409,444.74639,220.27683)"><rect
     style="fill:#ffffff;fill-opacity:0.99748;stroke:#ffffff;stroke-width:27.9903;stroke-opacity:1"
     id="rect1048"
     width="4738.6475"
     height="4073.5491"
     x="-136.4361"
     y="-36.036556"
     ry="682.72028" /></g><g
   id="g1150"
   transform="matrix(9.0640893,0,0,8.5196206,-2092.8116,-1329.8631)"><path
     class="fil0"
     d="m 666.50126,529.54937 c -9.05583,-111.88426 3.23399,-170.99674 86.80546,-242.11994 12.3334,-10.49415 50.74543,-37.65548 70.18192,-43.71419 -30.72093,26.27729 -54.45849,28.06442 -100.64512,85.98039 -84.80193,106.33614 -38.83669,174.78435 -41.90372,256.45887 -0.9473,25.3285 -5.26652,85.2526 -12.77616,104.97579 C 626.32888,640.73249 618.99709,562.194 599.77109,529.68272 573.74688,485.66749 514.73324,455.6178 448.2027,452.16167 535.1352,447.2423 605.70185,491.69571 627.54842,588.16645 647.71084,497.78872 571.83046,438.6877 475.42471,444.08719 l -60.74861,6.82463 c -6.0215,64.05091 12.3733,105.38353 47.46426,129.79367 41.58433,28.9256 88.35896,27.69097 144.94803,25.1951 14.44216,32.1531 42.0634,76.69036 52.38961,112.94356 4.89995,17.20825 -19.49822,79.81498 40.35022,44.96022 -11.47313,-59.07436 -4.93626,-161.53521 6.84179,-222.12616 98.29318,-27.04701 211.27531,-93.96722 211.27531,-210.50411 0,-51.93727 -16.54373,-75.21188 -29.24732,-114.4792 -120.60066,17.71888 -283.85999,102.23984 -245.01966,257.20953 3.71307,14.8191 10.9251,37.84601 19.62889,51.19805 z"
     id="path7"
     style="stroke:#000000;stroke-width:0.371896;stroke-opacity:1" /><path
     class="fil0"
     d="m 828.5374,995.27393 c -42.09967,-0.3734 -113.14906,27.03937 -134.43305,-12.9481 -6.18483,-11.6183 -9.76359,-34.3099 -3.35011,-47.8486 15.8577,-6.4207 38.34307,18.6143 53.84873,21.3732 -8.30817,-5.7616 -22.00264,-19.3384 -30.86247,-26.5022 -11.11386,-8.9852 -19.54542,-25.57992 -32.83335,-27.22987 -21.41099,-2.65976 -24.95714,15.17727 -33.37416,25.88857 -7.17937,9.1338 -25.50156,18.7706 -34.10735,28.5522 7.64033,-3.0408 13.65455,-6.4436 21.08434,-9.8692 2.77303,-1.2765 7.94883,-3.8448 11.40782,-4.3135 25.70845,-3.479 13.00486,39.9875 9.66563,45.8328 -11.86151,20.78247 -45.10863,12.77277 -80.02174,9.4768 -21.44003,-2.0196 -21.24769,-6.939 -38.24507,-12.0908 l 13.69808,12.1365 c -48.1829,6.12347 -53.98665,5.56327 -93.25164,26.36867 24.2784,-3.3875 42.0489,-16.3852 72.16003,-19.2088 29.70102,-2.7816 59.28587,-1.1736 88.69289,2.172 -83.04521,35.9103 -46.93432,18.8392 -83.03071,15.928 8.77637,2.835 11.71275,5.1899 17.04097,11.542 l -50.48409,23.3432 c 0.0326,-0.027 11.18283,-0.2324 9.65837,14.0722 -0.72592,6.8285 -4.09419,13.8436 -4.8818,23.5871 12.77616,-29.3409 10.84525,-45.9814 46.0959,-52.5203 4.42084,9.5187 5.79283,10.7075 13.65093,18.9039 l -5.17218,-22.8935 66.18936,-24.7378 c -7.93433,9.8387 -21.38561,24.5206 -28.57221,33.1057 18.344,-11.5687 47.37713,-41.7251 70.10569,-45.3642 l 2.54073,45.0479 c -8.61668,6.0358 -5.22299,5.9215 -15.30966,9.9492 l 16.85585,3.2733 -1.91642,19.5403 c -30.92417,11.8354 -32.10743,15.6155 -67.94608,12.8719 l 18.67426,7.5791 c 0.0181,3.2961 -0.81665,9.1529 -0.7985,9.8159 l 1.42642,8.8594 c 7.53868,-20.6644 25.30556,-28.4569 48.50232,-29.8858 l 6.01426,13.4549 28.90613,9.6368 c -0.39562,-0.3506 -1.29939,-1.2232 -1.78938,-1.6386 -0.48277,-0.4077 -1.27039,-1.0974 -1.80392,-1.5318 l -23.99164,-15.4783 0.3593,-30.0001 c 10.66379,3.1208 10.36252,5.7691 19.95554,9.5644 l -18.11169,-18.4086 2.15599,-53.7968 c 12.44224,12.9633 21.27668,29.1428 29.05855,49.7386 31.30893,11.3439 -25.21844,-23.1146 31.06936,16.9339 -4.67492,-10.2008 -12.1519,-18.4353 -20.74315,-24.4978 l 14.87774,-1.8595 c -20.87019,-8.0592 -36.89123,-16.6824 -43.25756,-38.9244 16.58,0.7735 55.71434,23.0765 74.60276,30.9223 29.44693,12.228 38.84395,29.6801 62.43271,43.3293 -7.42979,-8.3755 -19.05538,-19.6317 -25.97341,-27.8243 l 50.05943,14.659 -113.17448,-50.2492 c 52.50573,-11.5001 40.22683,-0.4839 79.78217,4.645 l -28.38709,-14.4685 c 62.59971,-7.29707 28.44517,-2.0767 63.73213,20.8511 19.22961,12.4947 47.16301,17.5856 72.41411,9.5301 43.51891,-13.8741 74.96941,-66.01707 53.20265,-121.9668 -29.81716,-76.6599 -136.10993,-71.05081 -160.76941,5.88343 -11.86156,37.0191 -0.67512,48.7021 6.67117,77.6887 z"
     id="path9"
     style="stroke:#000000;stroke-width:0.371896;stroke-opacity:1" /><path
     class="fil0"
     d="m 1554.0651,1108.69 h -322.6713 c -10.2028,0 -10.6528,-1.2841 -19.2042,-4.3326 -5.3899,14.499 -46.0306,77.3725 -58.1679,100.5137 -65.5796,4.9461 -147.2311,0.6059 -214.56739,0.6059 l -596.38292,0.221 c -27.63576,-0.015 -19.14976,-6.1731 -35.90036,-18.4238 l -22.34744,23.7814 c 8.25371,8.8061 14.72891,17.837 24.94623,23.1565 6.43891,-8.3717 12.26805,-19.0526 27.36718,-19.0526 h 728.3152 c 19.6507,0 56.3495,47.5285 70.465,61.4559 16.8849,16.6558 13.7998,19.5822 46.2702,19.2469 51.5112,-0.5334 298.215,-2.1986 322.7112,0.9831 21.3275,35.9332 44.9997,11.363 45.7583,-4.5459 1.2776,-26.7993 -34.884,-37.8041 -44.5098,-6.1692 h -299.3365 c -56.6036,0.015 -37.8894,6.4626 -86.1885,-38.5929 -10.8307,-10.1017 -19.7922,-21.7504 -29.8208,-31.5739 41.6715,-3.4904 243.0307,-0.8192 300.3928,-0.804 18.7179,0 15.709,11.081 31.0186,19.0526 l 20.4237,-22.5126 -22.4635,-25.016 c -9.212,10.0598 -12.2645,18.7935 -28.9788,18.7935 -45.3046,0 -191.8569,2.0234 -226.1965,-0.9641 l 50.2663,-86.1404 h 344.9497 c 6.4172,7.2933 8.8599,21.3693 24.8374,22.2115 13.0593,0.6859 23.3528,-9.3853 23.9917,-22.4973 0.675,-13.8665 -9.0777,-24.7188 -21.3602,-25.1189 -21.9301,-0.7088 -13.7526,15.7222 -33.6174,15.7222 z"
     id="path11"
     style="stroke:#000000;stroke-width:0.371896;stroke-opacity:1" /><path
     class="fil0"
     d="m 1219.8698,1610.3629 c 114.6336,0 146.0007,14.8191 133.6491,-36.1198 -21.019,-86.6625 -137.5109,-91.056 -165.1467,-10.5704 -23.8247,69.3818 29.9442,130.6282 97.8648,121.7725 14.9431,-1.9471 33.3416,-7.8801 34.5066,-22.2114 2.2068,-27.1461 -22.3837,-15.124 -32.8042,-11.4582 -33.788,11.8849 -69.9352,-13.4778 -68.0696,-41.4127 z"
     id="path13"
     style="stroke:#000000;stroke-width:0.371896;stroke-opacity:1" /><path
     class="fil0"
     d="m 955.58424,1610.3629 c 114.63726,0 146.00426,14.8191 133.65276,-36.1198 -4.3374,-17.8713 -10.9142,-28.5903 -20.8012,-39.6141 -45.4971,-50.7256 -123.96177,-30.3203 -144.34557,29.0437 -23.82468,69.3818 29.94417,130.6282 97.86487,121.7725 14.943,-1.9471 33.3379,-7.8801 34.5066,-22.2114 2.2068,-27.1461 -22.3837,-15.124 -32.8043,-11.4582 -33.79158,11.8849 -69.93512,-13.4778 -68.07316,-41.4127 z"
     id="path15"
     style="stroke:#000000;stroke-width:0.371896;stroke-opacity:1" /><path
     class="fil0"
     d="m 619.16767,1608.7549 c 0,-18.3819 1.83296,-37.4269 -4.43172,-52.1926 -16.04647,-3.1398 -78.63525,-11.6183 -63.87733,20.8778 5.67307,12.4947 25.16764,8.7337 38.88754,8.7337 l 0.0726,22.5811 c 0,54.0826 -105.46162,72.274 -105.46162,-22.5811 0,-45.0327 -8.03956,-113.8505 52.49855,-114.0829 18.66699,-0.072 31.75169,5.2051 41.51171,18.8086 28.51413,39.7399 53.74708,10.2427 15.30239,-28.8798 -36.22342,-36.8667 -94.14091,-27.851 -120.94551,8.3793 -21.68683,29.3105 -19.98818,56.1784 -20.04988,99.6449 -0.23956,171.6407 166.4933,127.1034 166.4933,38.711 z"
     id="path17"
     style="stroke:#000000;stroke-width:0.371896;stroke-opacity:1" /><path
     class="fil0"
     d="m 1455.1513,1680.5373 c 42.0344,16.4081 25.5923,-53.4691 27.7882,-88.0609 2.1959,-34.6261 25.7665,-62.3057 62.9373,-52.4822 62.5742,16.5338 24.2457,120.8504 42.2339,139.8344 2.8565,3.0179 27.1458,18.3018 26.8337,-28.9752 -0.2577,-39.1378 4.6495,-77.7192 -14.0321,-107.4297 -34.6191,-55.0467 -120.2958,-51.6363 -144.1894,17.9818 -7.2374,21.0912 -8.7038,98.8904 -1.5716,119.1318 z"
     id="path19"
     style="stroke:#000000;stroke-width:0.371896;stroke-opacity:1" /><path
     class="fil0"
     d="m 1080.3699,794.97438 -1.1869,23.94526 c 18.9973,7.67434 45.9108,3.12078 68.9079,4.9003 -0.2287,34.06215 -5.9779,188.92516 3.7857,207.44426 11.2336,9.4119 14.6672,5.4719 24.507,1.0746 11.1356,-51.41907 -7.2555,-162.11061 4.2721,-209.17428 21.2694,0 49.3371,3.31136 66.6539,-3.96671 12.9976,-39.78177 -35.5301,-28.39596 -68.1566,-28.39596 -25.1168,0 -81.6478,-4.19535 -98.7831,4.17253 z"
     id="path21"
     style="stroke:#000000;stroke-width:0.371896;stroke-opacity:1" /><path
     class="fil1"
     d="m 895.67049,890.93069 c -73.53203,11.81259 -55.30784,125.94121 18.0645,113.19881 65.28558,-11.34007 53.27161,-124.66084 -18.0645,-113.19881 z"
     id="path23"
     style="fill:#ffffff;fill-opacity:1;stroke:#000000;stroke-width:0.371896;stroke-opacity:1" /><path
     class="fil0"
     d="m 751.56815,1682.1568 c 25.31283,-43.6838 -29.20009,-127.3969 64.88636,-144.4451 24.14044,-4.3745 27.03686,-35.6893 -8.96148,-32.2064 -37.17439,3.5933 -64.64679,31.4176 -75.51746,62.9001 -7.0269,20.3519 -5.29194,43.6418 -5.33548,66.1619 -0.0545,27.3099 -6.97972,54.174 24.92806,47.5895 z"
     id="path25"
     style="stroke:#000000;stroke-width:0.371896;stroke-opacity:1" /><path
     class="fil1"
     d="m 1217.0859,1581.8374 106.4308,1.1699 c -4.6387,-26.7193 -23.4364,-45.5776 -52.1646,-46.2901 -32.0748,-0.7926 -46.4371,19.243 -54.2662,45.1202 z"
     id="path27"
     style="stroke:#000000;stroke-width:0.371896;stroke-opacity:1" /><path
     class="fil1"
     d="m 952.80398,1581.8374 106.42712,1.1699 c -4.635,-26.7193 -23.4327,-45.5776 -52.161,-46.2901 -32.07475,-0.7926 -46.43706,19.243 -54.26612,45.1202 z"
     id="path29"
     style="stroke:#000000;stroke-width:0.371896;stroke-opacity:1" /><path
     class="fil0"
     d="m 654.34213,822.18142 -19.6543,14.92578 c -0.48635,0.48392 -1.17235,1.1546 -1.63696,1.6347 -0.47185,0.48774 -1.17596,1.27652 -1.597,1.72998 l -3.11418,3.66954 c 9.24821,16.77386 17.2805,31.63867 28.20559,45.66896 l -4.54065,-39.1911 28.04594,-18.27521 c -4.67856,-14.83053 -20.9428,-37.57926 -29.50501,-46.86931 z"
     id="path31"
     style="stroke:#000000;stroke-width:0.371896;stroke-opacity:1" /><path
     class="fil0"
     d="m 676.71497,839.80885 c 4.00706,18.57246 20.45276,35.26628 27.66117,51.22851 l -3.94538,-42.51389 27.74463,-20.51196 -29.18559,-40.91726 c 0.92192,12.25841 4.84187,26.89458 0.61338,34.50418 -3.82922,6.88179 -17.07723,15.30298 -22.88821,18.21042 z"
     id="path33"
     style="stroke:#000000;stroke-width:0.371896;stroke-opacity:1" /></g>
 </g>
</svg>
