<?xml version="1.0" encoding="utf-8"?>
<!-- Generator: Adobe Illustrator 24.0.0, SVG Export Plug-In . SVG Version: 6.00 Build 0)  -->
<svg version="1.1" id="Capa_1" xmlns:serif="http://www.serif.com/"
	 xmlns="http://www.w3.org/2000/svg" xmlns:xlink="http://www.w3.org/1999/xlink" x="0px" y="0px" viewBox="0 0 1125 2436"
	 style="enable-background:new 0 0 1125 2436;" xml:space="preserve">
<style type="text/css">
	.st0{fill-rule:evenodd;clip-rule:evenodd;fill:#FFDD71;}
	.st1{fill-rule:evenodd;clip-rule:evenodd;fill:#202020;}
	.st2{fill-rule:evenodd;clip-rule:evenodd;fill:#FFFFFF;}
	.st3{fill-rule:evenodd;clip-rule:evenodd;fill:#EEEFEF;}
	.st4{fill-rule:evenodd;clip-rule:evenodd;fill:#E64C25;}
	.st5{fill-rule:evenodd;clip-rule:evenodd;fill:#D94527;}
	.st6{fill-rule:evenodd;clip-rule:evenodd;fill:#424243;}
	.st7{fill-rule:evenodd;clip-rule:evenodd;fill:#2898D4;}
	.st8{fill-rule:evenodd;clip-rule:evenodd;fill:#1687C9;}
	.st9{fill:#41B3E6;}
	.st10{fill:#31E7FF;}
	.st11{fill:#5A6271;}
	.st12{fill:#0E1F30;}
	.st13{fill:#0A1828;}
	.st14{clip-path:url(#SVGID_2_);}
	.st15{fill:#0A192B;}
	.st16{fill:#03FF5D;}
</style>
<g id="Icon">
</g>
<path class="st0" d="M334,928c0-9.3-3.7-18.3-10.3-24.9c-6.6-6.6-15.5-10.3-24.9-10.3c-28.4,0-68.3,0-96.7,0
	c-9.3,0-18.3,3.7-24.9,10.3c-6.6,6.6-10.3,15.5-10.3,24.9c0,48.6,0,135.9,0,184.6c0,9.3,3.7,18.3,10.3,24.9
	c6.6,6.6,15.5,10.3,24.9,10.3c28.4,0,68.3,0,96.7,0c9.3,0,18.3-3.7,24.9-10.3c6.6-6.6,10.3-15.5,10.3-24.9
	C334,1063.9,334,976.6,334,928z"/>
<path class="st1" d="M318.9,899.1c4.1,5.9,6.3,12.8,6.3,20.1c0,48.6,0,135.9,0,184.6c0,9.3-3.7,18.3-10.3,24.9
	c-6.6,6.6-15.5,10.3-24.9,10.3c-28.4,0-68.3,0-96.7,0c-7.2,0-14.2-2.2-20.1-6.3c1.2,1.7,2.5,3.3,4,4.8c6.6,6.6,15.5,10.3,24.9,10.3
	c28.4,0,68.3,0,96.7,0c9.3,0,18.3-3.7,24.9-10.3c6.6-6.6,10.3-15.5,10.3-24.9c0-48.6,0-135.9,0-184.6c0-9.3-3.7-18.3-10.3-24.9
	C322.2,901.6,320.6,900.3,318.9,899.1L318.9,899.1z M273,1081.2c7.6,4.6,12.6,13,12.6,22.5c0,14.6-11.8,26.4-26.4,26.4
	c-9.5,0-17.9-5.1-22.5-12.6c4,2.4,8.7,3.8,13.7,3.8c14.6,0,26.4-11.8,26.4-26.4C276.9,1089.9,275.4,1085.2,273,1081.2z M263.1,928.5
	c5.4,1.6,9.4,6.7,9.4,12.6v139.2c-2.3-3.4-5.3-6.2-8.8-8.3V932.4C263.7,931,263.5,929.7,263.1,928.5z"/>
<path class="st2" d="M237.3,1072.1V932.4c0-7.3,5.9-13.2,13.2-13.2c7.3,0,13.2,5.9,13.2,13.2v139.8c7.9,4.6,13.2,13.1,13.2,22.8
	c0,14.6-11.8,26.4-26.4,26.4s-26.4-11.8-26.4-26.4C224.1,1085.2,229.4,1076.7,237.3,1072.1z"/>
<path class="st3" d="M264.2,1072.4c7.6,4.6,12.6,13,12.6,22.5c0,14.6-11.8,26.4-26.4,26.4c-9.5,0-17.9-5.1-22.5-12.6
	c4,2.4,8.7,3.8,13.7,3.8c14.6,0,26.4-11.8,26.4-26.4C268.1,1081.1,266.7,1076.4,264.2,1072.4z M254.3,919.7
	c5.4,1.6,9.4,6.7,9.4,12.6v139.2c-2.3-3.4-5.3-6.2-8.8-8.3V923.6C254.9,922.2,254.7,920.9,254.3,919.7z"/>
<path class="st4" d="M237.3,1072.1V963.2c0-7.3,5.9-13.2,13.2-13.2c7.3,0,13.2,5.9,13.2,13.2v108.9c7.9,4.6,13.2,13.1,13.2,22.8
	c0,14.6-11.8,26.4-26.4,26.4s-26.4-11.8-26.4-26.4C224.1,1085.2,229.4,1076.7,237.3,1072.1z"/>
<path class="st5" d="M264.2,1072.4c7.6,4.6,12.6,13,12.6,22.5c0,14.6-11.8,26.4-26.4,26.4c-9.5,0-17.8-5-22.4-12.5l-0.1-0.2
	c4,2.4,8.7,3.8,13.7,3.8c14.6,0,26.4-11.8,26.4-26.4C268.1,1081.1,266.7,1076.4,264.2,1072.4L264.2,1072.4z M254.9,950.8
	c5.1,1.8,8.8,6.7,8.8,12.4v108.4c-2.3-3.4-5.3-6.2-8.8-8.3V950.8L254.9,950.8z"/>
<path class="st6" d="M263.7,1050.1h-6.5c-2.4,0-4.4,2-4.4,4.4s2,4.4,4.4,4.4h6.5V1050.1z M263.7,1022.5h-6.5c-2.4,0-4.4,2-4.4,4.4
	s2,4.4,4.4,4.4h6.5V1022.5z M263.7,995h-6.5c-2.4,0-4.4,2-4.4,4.4c0,2.4,2,4.4,4.4,4.4h6.5V995z M263.7,967.5h-6.5
	c-2.4,0-4.4,2-4.4,4.4c0,2.4,2,4.4,4.4,4.4h6.5V967.5z M263.7,948.8V940h-6.5c-2.4,0-4.4,2-4.4,4.4s2,4.4,4.4,4.4H263.7z"/>
<path class="st0" d="M958,928c0-9.3-3.7-18.3-10.3-24.9c-6.6-6.6-15.5-10.3-24.9-10.3c-28.4,0-68.3,0-96.7,0
	c-9.3,0-18.3,3.7-24.9,10.3c-6.6,6.6-10.3,15.5-10.3,24.9c0,48.6,0,135.9,0,184.6c0,9.3,3.7,18.3,10.3,24.9
	c6.6,6.6,15.5,10.3,24.9,10.3c28.4,0,68.3,0,96.7,0c9.3,0,18.3-3.7,24.9-10.3c6.6-6.6,10.3-15.5,10.3-24.9
	C958,1063.9,958,976.6,958,928z"/>
<path class="st1" d="M942.9,899.1c4.1,5.9,6.3,12.8,6.3,20.1c0,48.6,0,135.9,0,184.6c0,9.3-3.7,18.3-10.3,24.9
	c-6.6,6.6-15.5,10.3-24.9,10.3c-28.4,0-68.3,0-96.7,0c-7.2,0-14.2-2.2-20.1-6.3c1.2,1.7,2.5,3.3,4,4.8c6.6,6.6,15.5,10.3,24.9,10.3
	c28.4,0,68.3,0,96.7,0c9.3,0,18.3-3.7,24.9-10.3c6.6-6.6,10.3-15.5,10.3-24.9c0-48.6,0-135.9,0-184.6c0-9.3-3.7-18.3-10.3-24.9
	C946.2,901.6,944.6,900.3,942.9,899.1L942.9,899.1z M883.2,928c7.2,14.1,27.4,54.5,40.5,88.1c7.3,18.6,12.3,35.2,12.3,44.7
	c0,33.5-27.6,60.6-61.5,60.6c-14.9,0-28.5-5.2-39.2-13.9c11.3,13.8,28.6,22.7,48,22.7c34,0,61.5-27.2,61.5-60.6
	c0-9.4-5-26.1-12.3-44.7c-16.2-41.4-43.2-93.2-43.2-93.2C888.2,929.4,885.9,928,883.2,928L883.2,928L883.2,928z"/>
<path class="st7" d="M880.6,922.8c-1.2-2.3-3.5-3.7-6.1-3.7s-4.9,1.4-6.1,3.7c0,0-27,51.8-43.2,93.2c-7.3,18.6-12.3,35.2-12.3,44.7
	c0,33.5,27.6,60.6,61.5,60.6s61.5-27.2,61.5-60.6c0-9.4-5-26.1-12.3-44.7C907.6,974.7,880.6,922.8,880.6,922.8L880.6,922.8z"/>
<path class="st8" d="M874.4,919.2c7.2,14.1,27.4,54.5,40.5,88.1c7.3,18.6,12.3,35.2,12.3,44.7c0,33.5-27.6,60.6-61.5,60.6
	c-14.9,0-28.5-5.2-39.2-13.9c11.3,13.8,28.6,22.7,48,22.7c34,0,61.5-27.2,61.5-60.6c0-9.4-5-26.1-12.3-44.7
	c-16.2-41.4-43.2-93.2-43.2-93.2C879.4,920.6,877.1,919.2,874.4,919.2L874.4,919.2L874.4,919.2z"/>
<path class="st8" d="M894.6,1033.4c0.4,1.7,0.2,3.5-0.7,5.1l-27.3,47.8c-1.6,2.9-5,4.1-8.1,3.1c0.4,1.7,1.6,3.3,3.2,4.2
	c3.3,1.9,7.5,0.7,9.3-2.5l27.3-47.9c1.9-3.3,0.7-7.5-2.5-9.3C895.5,1033.8,895,1033.6,894.6,1033.4L894.6,1033.4z M905.3,1065.1
	c1.1,2,1.7,4.3,1.7,6.7c0,7.5-6.1,13.7-13.7,13.7c-2.7,0-5.3-0.8-7.4-2.2c2.3,4.2,6.8,7,11.9,7c7.5,0,13.7-6.1,13.7-13.7
	C911.5,1071.7,909,1067.5,905.3,1065.1z M865.7,1035.3c1.1,2,1.7,4.3,1.7,6.7c0,7.5-6.1,13.7-13.7,13.7c-2.7,0-5.3-0.8-7.4-2.2
	c2.3,4.2,6.8,7,11.9,7c7.5,0,13.7-6.1,13.7-13.7C872,1042,869.5,1037.7,865.7,1035.3z"/>
<path class="st2" d="M882.2,1032l-27.3,47.9c-1.9,3.3-0.7,7.5,2.5,9.3c3.3,1.9,7.5,0.7,9.3-2.5l27.3-47.9c1.9-3.3,0.7-7.5-2.5-9.3
	C888.3,1027.6,884.1,1028.7,882.2,1032z M893.5,1058.3c-7.5,0-13.7,6.1-13.7,13.7c0,7.5,6.1,13.7,13.7,13.7
	c7.5,0,13.7-6.1,13.7-13.7C907.2,1064.5,901.1,1058.3,893.5,1058.3z M854,1028.5c-7.5,0-13.7,6.1-13.7,13.7s6.1,13.7,13.7,13.7
	c7.5,0,13.7-6.1,13.7-13.7S861.5,1028.5,854,1028.5z"/>
<path class="st3" d="M890.3,1028.9c0.4,1.7,0.2,3.5-0.7,5.1l-27.3,47.8c-1.6,2.9-5,4.1-8.1,3.1c0.4,1.7,1.6,3.3,3.2,4.2
	c3.3,1.9,7.5,0.7,9.3-2.5l27.3-47.9c1.9-3.3,0.7-7.5-2.5-9.3C891.2,1029.2,890.7,1029,890.3,1028.9L890.3,1028.9z M901,1060.5
	c1.1,2,1.7,4.3,1.7,6.7c0,7.5-6.1,13.7-13.7,13.7c-2.7,0-5.3-0.8-7.4-2.2c2.3,4.2,6.8,7,11.9,7c7.5,0,13.7-6.1,13.7-13.7
	C907.2,1067.2,904.7,1063,901,1060.5z M861.4,1030.7c1.1,2,1.7,4.3,1.7,6.7c0,7.5-6.1,13.7-13.7,13.7c-2.7,0-5.3-0.8-7.4-2.2
	c2.3,4.2,6.8,7,11.9,7c7.5,0,13.7-6.1,13.7-13.7C867.7,1037.4,865.2,1033.2,861.4,1030.7z"/>
<image style="overflow:visible;" width="313" height="563" xlink:href="35ECAA2D.jpg"  transform="matrix(0.5038 0 0 0.5092 464.0602 1296)">
</image>
<path class="st9" d="M250.5,1382.7L250.5,1382.7c-4.6,0-8.4-3.8-8.4-8.4v-218.2c0-4.6,3.8-8.4,8.4-8.4h0c4.6,0,8.4,3.8,8.4,8.4
	v218.2C258.9,1378.9,255.1,1382.7,250.5,1382.7z"/>
<path class="st9" d="M465.6,1384H250.5c-4.6,0-8.4-3.8-8.4-8.4l0,0c0-4.6,3.8-8.4,8.4-8.4h215.1c4.6,0,8.4,3.8,8.4,8.4l0,0
	C474,1380.3,470.2,1384,465.6,1384z"/>
<path class="st9" d="M833.5,1381.2H618.4c-4.6,0-8.4-3.8-8.4-8.4l0,0c0-4.6,3.8-8.4,8.4-8.4h215.1c4.6,0,8.4,3.8,8.4,8.4l0,0
	C841.9,1377.5,838.1,1381.2,833.5,1381.2z"/>
<path class="st9" d="M835.3,1381.2L835.3,1381.2c-4.6,0-8.4-3.8-8.4-8.4v-215.1c0-4.6,3.8-8.4,8.4-8.4l0,0c4.6,0,8.4,3.8,8.4,8.4
	v215.1C843.7,1377.5,839.9,1381.2,835.3,1381.2z"/>
<g>
	<g id="g1834" transform="translate(670.2656,261.6055)">
		<path id="path1836" class="st10" d="M-184.9,1682.3c-36.8-11.9,28.2-43.6,61.2-37.5c16.5-3.9,86.9,32.8,39.1,36.5
			C-117.5,1657.9-146.7,1660.9-184.9,1682.3"/>
	</g>
	<g id="g1838" transform="translate(674.4258,267.3047)">
		<path id="path1840" class="st10" d="M-211.2,1647.5c-40.6-14,43.2-47.5,68.7-44.7c14-5.1,114.7,19,85.8,43.4
			C-74.9,1656.6-106.1,1587.8-211.2,1647.5"/>
	</g>
	<g id="g1842" transform="translate(666.1055,255.9082)">
		<path id="path1844" class="st10" d="M-158.7,1717.1c-32.5-11.1,15.3-34.9,33.3-30.9c15.1-2.4,60.7,22.4,26.7,30.8
			C-123.8,1704.5-128.5,1702.5-158.7,1717.1"/>
	</g>
</g>
<g id="g1846" transform="translate(637.6611,275.9551)">
	<path id="path1848" d="M-256.1,1656.8c-1.2-1.4-5-1.6-6.8-1.6c-1.8,0-5.6,0.2-6.8,1.6c-1.1,1.4-4.6,203.8-4.6,206.4
		c0,5.3,22.8,5.7,22.8,0C-251.5,1860.6-254.9,1658.3-256.1,1656.8"/>
</g>
<g id="g1850" transform="translate(685.6309,275.9551)">
	<path id="path1852" d="M25.4,1651.9c-1.2-1.4-5-1.6-6.8-1.6c-1.8,0-5.6,0.2-6.8,1.6c-1.2,1.4-4.6,203.8-4.6,206.4
		c0,5.3,22.8,5.7,22.8,0C30,1855.6,26.6,1653.3,25.4,1651.9"/>
</g>
<g id="g1854" transform="translate(689.9863,223.6953)">
	<path id="path1856" class="st11" d="M7.1,1978c-3.4,29.4-38.1,15.9-68.1,18.9c-69.8,0-193.2,0-224.1,0
		c-20.1-0.2-29.2-1.1-26.7-46.1c-2.7-42.1,6.5-45,20.9-46.1c19.6,0,252.1,0,276.4,0C17.6,1903.2,4.6,1947,7.1,1978z"/>
</g>
<g id="g1858" transform="translate(693.4961,228.4258)">
	<path id="path1860" class="st12" d="M22.2,1949.2c-3.5,29.2-37.3,16-61.6,18.9c-56.5,0-156.6,0-218,0c-37.1-1.2-62.6,5.3-70-10.6
		c-8.2-60,0.3-72.8,24-70.9c39.9,0,253.9,0,298,0C29.1,1885.5,21.3,1903.7,22.2,1949.2z"/>
</g>
<g id="g1862" transform="translate(689.7988,225.6055)">
	<path id="path1864" class="st13" d="M6.3,1966.4c-328.3-2.1-328,9.2-331.9-18.9c-0.3,34.2,35,20.7,50.6,23.4c30.9,0,80.6,0,129.8,0
		c147.7-2,172.6,10,171.1-23.4C25.9,1957.9,17.1,1966.4,6.3,1966.4"/>
</g>
<g id="g1866">
	<g id="g1868">
	</g>
	<g id="g1880">
		<g>
			<defs>
				<rect id="SVGID_1_" x="364.1" y="2115" width="351.5" height="23.4"/>
			</defs>
			<use xlink:href="#SVGID_1_"  style="overflow:visible;fill:#0A192B;"/>
			<clipPath id="SVGID_2_">
				<use xlink:href="#SVGID_1_"  style="overflow:visible;"/>
			</clipPath>
			<g id="g1878" class="st14">
				<g id="g1876" transform="translate(689.7988,240.6816)">
					<path id="path1874" class="st15" d="M6.3,1874.3c-333.6,2.3-330.7-10.8-331.9,23.3c-2.8-33.5,87.9-14,180.4-18.9
						c143.2,1.8,169.7-8.7,171.1,18.9C27.5,1885.7,19,1874.4,6.3,1874.3"/>
				</g>
			</g>
		</g>
	</g>
</g>
<g id="g1886" transform="translate(633.2754,229.6621)">
	<path id="path1888" class="st16" d="M-237.1,1941.6c-0.7,13.7-20.8,13.1-21.4,0C-257.8,1927.9-237.7,1928.5-237.1,1941.6"/>
</g>
<g>
	<g id="g1834_1_" transform="translate(670.2656,261.6055)">
		<path id="path1836_1_" class="st10" d="M-199.9,1397.3c-36.8,11.2,28.2,41.2,61.2,35.5c16.5,3.7,86.9-31,39.1-34.5
			C-132.5,1420.3-161.6,1417.4-199.9,1397.3"/>
	</g>
	<g id="g1838_1_" transform="translate(674.4258,267.3047)">
		<path id="path1840_1_" class="st10" d="M-226.1,1419c-40.6,13.2,43.2,44.8,68.7,42.3c14,4.8,114.7-18,85.8-41
			C-89.8,1410.4-121.1,1475.4-226.1,1419"/>
	</g>
	<g id="g1842_1_" transform="translate(666.1055,255.9082)">
		<path id="path1844_1_" class="st10" d="M-173.7,1375.5c-32.5,10.5,15.3,33,33.3,29.2c15.1,2.3,60.7-21.1,26.7-29.1
			C-138.7,1387.3-143.5,1389.2-173.7,1375.5"/>
	</g>
</g>
</svg>
