<?xml version="1.0" encoding="UTF-8"?>
<!DOCTYPE svg PUBLIC "-//W3C//DTD SVG 1.1//EN" "http://www.w3.org/Graphics/SVG/1.1/DTD/svg11.dtd">
<!-- Creator: CorelDRAW 2020 (64-Bit) -->
<svg xmlns="http://www.w3.org/2000/svg" xml:space="preserve" width="42.3332mm" height="42.3332mm" version="1.1" style="shape-rendering:geometricPrecision; text-rendering:geometricPrecision; image-rendering:optimizeQuality; fill-rule:evenodd; clip-rule:evenodd"
viewBox="0 0 4233.32 4233.32"
 xmlns:xlink="http://www.w3.org/1999/xlink"
 xmlns:xodm="http://www.corel.com/coreldraw/odm/2003">
 <defs>
  <style type="text/css">
   <![CDATA[
    .fil0 {fill:#7FCC2B}
    .fil1 {fill:white}
   ]]>
  </style>
 </defs>
 <g id="Capa_x0020_1">
  <metadata id="CorelCorpID_0Corel-Layer"/>
  <g id="_330983502576">
   <path class="fil0" d="M1318.05 897.07c-24.95,-293.62 8.91,-448.75 239.16,-635.4 33.98,-27.54 139.81,-98.82 193.36,-114.72 -84.64,68.96 -150.04,73.65 -277.29,225.64 -233.64,279.06 -107,458.69 -115.45,673.03 -2.61,66.47 -14.51,223.73 -35.2,275.49 -115.26,-132.26 -135.46,-338.37 -188.43,-423.69 -71.7,-115.51 -234.29,-194.37 -417.59,-203.44 239.51,-12.91 433.93,103.75 494.12,356.92 55.55,-237.18 -153.51,-392.28 -419.12,-378.11l-167.37 17.91c-16.59,168.09 34.09,276.56 130.77,340.62 114.57,75.91 243.44,72.67 399.35,66.12 39.79,84.38 115.89,201.26 144.34,296.4 13.5,45.16 -53.72,209.46 111.17,117.99 -31.61,-155.03 -13.6,-423.92 18.85,-582.93 270.81,-70.98 582.09,-246.6 582.09,-552.43 0,-136.3 -45.58,-197.38 -80.58,-300.43 -332.27,46.5 -782.07,268.31 -675.06,675 10.23,38.89 30.1,99.32 54.08,134.36l8.8 11.67z"/>
   <path class="fil0" d="M1764.48 2119.28c-115.99,-0.98 -311.74,70.96 -370.38,-33.98 -17.04,-30.49 -26.9,-90.04 -9.23,-125.57 43.69,-16.85 105.64,48.85 148.36,56.09 -22.89,-15.12 -60.62,-50.75 -85.03,-69.55 -30.62,-23.58 -53.85,-67.13 -90.46,-71.46 -58.99,-6.98 -68.76,39.83 -91.95,67.94 -19.78,23.97 -70.26,49.26 -93.97,74.93 21.05,-7.98 37.62,-16.91 58.09,-25.9 7.64,-3.35 21.9,-10.09 31.43,-11.32 70.83,-9.13 35.83,104.94 26.63,120.28 -32.68,54.54 -124.28,33.52 -220.47,24.87 -59.07,-5.3 -58.54,-18.21 -105.37,-31.73l37.74 31.85c-132.75,16.07 -148.74,14.6 -256.92,69.2 66.89,-8.89 115.85,-43 198.81,-50.41 81.83,-7.3 163.34,-3.08 244.36,5.7 -228.8,94.24 -129.31,49.44 -228.76,41.8 24.18,7.44 32.27,13.62 46.95,30.29l-139.09 61.26c0.09,-0.07 30.81,-0.61 26.61,36.93 -2,17.92 -11.28,36.33 -13.45,61.9 35.2,-77 29.88,-120.67 127,-137.83 12.18,24.98 15.96,28.1 37.61,49.61l-14.25 -60.08 182.36 -64.92c-21.86,25.82 -58.92,64.35 -78.72,86.88 50.54,-30.36 130.53,-109.5 193.15,-119.05l7 118.22c-23.74,15.84 -14.39,15.54 -42.18,26.11l46.44 8.59 -5.28 51.28c-85.2,31.06 -88.46,40.98 -187.2,33.78l51.45 19.89c0.05,8.65 -2.25,24.02 -2.2,25.76l3.93 23.25c20.77,-54.23 69.72,-74.68 133.63,-78.43l16.57 35.31 79.64 25.29c-1.09,-0.92 -3.58,-3.21 -4.93,-4.3 -1.33,-1.07 -3.5,-2.88 -4.97,-4.02l-66.1 -40.62 0.99 -78.73c29.38,8.19 28.55,15.14 54.98,25.1l-49.9 -48.31 5.94 -141.18c34.28,34.02 58.62,76.48 80.06,130.53 86.26,29.77 -69.48,-60.66 85.6,44.44 -12.88,-26.77 -33.48,-48.38 -57.15,-64.29l40.99 -4.88c-57.5,-21.15 -101.64,-43.78 -119.18,-102.15 45.68,2.03 153.5,60.56 205.54,81.15 81.13,32.09 107.02,77.89 172.01,113.71 -20.47,-21.98 -52.5,-51.52 -71.56,-73.02l137.92 38.47 -311.81 -131.87c144.66,-30.18 110.83,-1.27 219.81,12.19l-78.21 -37.97c172.47,-19.15 78.37,-5.45 175.59,54.72 52.98,32.79 129.94,46.15 199.51,25.01 119.9,-36.41 206.55,-173.25 146.58,-320.08 -82.15,-201.18 -375,-186.46 -442.94,15.44 -32.68,97.15 -1.86,127.81 18.38,203.88z"/>
   <path class="fil0" d="M3763.4 2416.92l-889 0c-28.11,0 -29.35,-3.37 -52.91,-11.37 -14.85,38.05 -126.82,203.05 -160.26,263.78 -180.68,12.98 -405.64,1.59 -591.16,1.59l-1643.11 0.58c-76.14,-0.04 -52.76,-16.2 -98.91,-48.35l-61.57 62.41c22.74,23.11 40.58,46.81 68.73,60.77 17.74,-21.97 33.8,-50 75.4,-50l2006.6 0c54.14,0 155.25,124.73 194.14,161.28 46.52,43.71 38.02,51.39 127.48,50.51 141.92,-1.4 821.62,-5.77 889.11,2.58 58.76,94.3 123.98,29.82 126.07,-11.93 3.52,-70.33 -96.11,-99.21 -122.63,-16.19l-824.71 0c-155.95,0.04 -104.39,16.96 -237.46,-101.28 -29.84,-26.51 -54.53,-57.08 -82.16,-82.86 114.81,-9.16 669.58,-2.15 827.62,-2.11 51.57,0 43.28,29.08 85.46,50l56.27 -59.08 -61.89 -65.65c-25.38,26.4 -33.79,49.32 -79.84,49.32 -124.82,0 -528.59,5.31 -623.2,-2.53l138.49 -226.06 950.38 0c17.68,19.14 24.41,56.08 68.43,58.29 35.98,1.8 64.34,-24.63 66.1,-59.04 1.86,-36.39 -25.01,-64.87 -58.85,-65.92 -60.42,-1.86 -37.89,41.26 -92.62,41.26z"/>
   <path class="fil0" d="M2842.65 3733.47c315.83,0 402.25,38.89 368.22,-94.79 -57.91,-227.43 -378.86,-238.96 -455,-27.74 -65.64,182.08 82.5,342.81 269.63,319.57 41.17,-5.11 91.86,-20.68 95.07,-58.29 6.08,-71.24 -61.67,-39.69 -90.38,-30.07 -93.09,31.19 -192.68,-35.37 -187.54,-108.68z"/>
   <path class="fil0" d="M2114.51 3733.47c315.84,0 402.26,38.89 368.23,-94.79 -11.95,-46.9 -30.07,-75.03 -57.31,-103.96 -125.35,-133.12 -341.53,-79.57 -397.69,76.22 -65.64,182.08 82.5,342.81 269.63,319.57 41.17,-5.11 91.85,-20.68 95.07,-58.29 6.08,-71.24 -61.67,-39.69 -90.38,-30.07 -93.1,31.19 -192.68,-35.37 -187.55,-108.68z"/>
   <path class="fil0" d="M1187.64 3729.25c0,-48.24 5.05,-98.22 -12.21,-136.97 -44.21,-8.24 -216.65,-30.49 -175.99,54.79 15.63,32.79 69.34,22.92 107.14,22.92l0.2 59.26c0,141.93 -290.56,189.67 -290.56,-59.26 0,-118.18 -22.15,-298.78 144.64,-299.39 51.43,-0.19 87.48,13.66 114.37,49.36 78.56,104.29 148.08,26.88 42.16,-75.79 -99.8,-96.75 -259.37,-73.09 -333.22,21.99 -59.75,76.92 -55.07,147.43 -55.24,261.5 -0.66,450.44 458.71,333.56 458.71,101.59z"/>
   <path class="fil0" d="M3490.88 3917.63c115.81,43.06 70.51,-140.32 76.56,-231.1 6.05,-90.87 70.99,-163.51 173.4,-137.73 172.4,43.39 66.8,317.15 116.36,366.97 7.87,7.92 74.79,48.03 73.93,-76.04 -0.71,-102.71 12.81,-203.96 -38.66,-281.93 -95.38,-144.46 -331.43,-135.51 -397.26,47.19 -19.94,55.35 -23.98,259.52 -4.33,312.64z"/>
   <path class="fil0" d="M2458.31 1593.63l-3.27 62.84c52.34,20.14 126.49,8.19 189.85,12.86 -0.63,89.39 -16.47,495.8 10.43,544.4 30.95,24.7 40.41,14.36 67.52,2.82 30.68,-134.94 -19.99,-425.43 11.77,-548.94 58.6,0 135.93,8.69 183.64,-10.41 35.81,-104.4 -97.89,-74.52 -187.78,-74.52 -69.2,0 -224.95,-11.01 -272.16,10.95z"/>
   <path class="fil1" d="M1949.44 1845.45c-202.59,31 -152.38,330.51 49.77,297.07 179.87,-29.76 146.77,-327.15 -49.77,-297.07z"/>
   <path class="fil0" d="M1552.42 3921.88c69.74,-114.64 -80.45,-334.33 178.77,-379.07 66.51,-11.48 74.49,-93.66 -24.69,-84.52 -102.42,9.43 -178.11,82.45 -208.06,165.07 -19.36,53.41 -14.58,114.53 -14.7,173.63 -0.15,71.67 -19.23,142.17 68.68,124.89z"/>
   <path class="fil1" d="M2834.98 3658.61l293.23 3.07c-12.78,-70.12 -64.57,-119.61 -143.72,-121.48 -88.37,-2.08 -127.94,50.5 -149.51,118.41z"/>
   <path class="fil1" d="M2106.85 3658.61l293.22 3.07c-12.77,-70.12 -64.56,-119.61 -143.71,-121.48 -88.37,-2.08 -127.94,50.5 -149.51,118.41z"/>
   <path class="fil0" d="M1284.55 1665.03l-54.15 39.17c-1.34,1.27 -3.23,3.03 -4.51,4.29 -1.3,1.28 -3.24,3.35 -4.4,4.54l-8.58 9.63c25.48,44.02 47.61,83.03 77.71,119.85l-12.51 -102.85 77.27 -47.96c-12.89,-38.92 -57.7,-98.62 -81.29,-123l10.46 96.33z"/>
   <path class="fil0" d="M1346.19 1711.29c11.04,48.74 56.35,92.55 76.21,134.44l-10.87 -111.57 76.44 -53.83 -80.41 -107.38c2.54,32.17 13.34,70.58 1.69,90.55 -10.55,18.06 -47.05,40.16 -63.06,47.79z"/>
  </g>
 </g>
</svg>
